<?xml version="1.0" encoding="UTF-8"?>
<svg width="100%" height="100%" viewBox="0 0 1000 32" preserveAspectRatio="none" xmlns="http://www.w3.org/2000/svg">
  <path d="M0,32 
           C50,32 30,24 60,24 S100,32 120,28 S150,16 180,20
           S220,28 250,24 S280,16 310,20 S340,28 370,24
           S400,16 430,24 S460,28 490,20 S520,16 550,24
           S580,28 610,20 S640,16 670,24 S700,28 730,20
           S760,16 790,24 S820,28 850,20 S880,16 910,24
           S940,28 970,20 S990,24 1000,32
           L1000,0 L0,0 Z" 
        fill="currentColor"/>
</svg> 