<?xml version="1.0" encoding="UTF-8"?>
<svg width="100%" height="100%" viewBox="0 0 1000 32" preserveAspectRatio="none" xmlns="http://www.w3.org/2000/svg">
  <path d="M0,0 
           C50,0 30,8 60,8 S100,0 120,4 S150,16 180,12
           S220,4 250,8 S280,16 310,12 S340,4 370,8
           S400,16 430,8 S460,4 490,12 S520,16 550,8
           S580,4 610,12 S640,16 670,8 S700,4 730,12
           S760,16 790,8 S820,4 850,12 S880,16 910,8
           S940,4 970,12 S990,8 1000,0
           L1000,32 L0,32 Z" 
        fill="currentColor"/>
</svg> 